<svg width="502" height="502" xmlns="http://www.w3.org/2000/svg">

 <g>
  <title>background</title>
  <rect fill="none" id="canvas_background" height="504" width="504" y="-1" x="-1"/>
 </g>
 <g>
  <title>Layer 1</title>
  <ellipse ry="233.08269" rx="239" id="svg_9" cy="250.944214" cx="253.392557" fill-opacity="null" stroke-opacity="null" stroke-width="1.5" stroke="#000" fill="#8290d8"/>
  <path stroke="null" id="svg_2" fill="#000003" d="m146.781072,218.507223c12.496986,0 20.825677,2.321627 24.990022,6.965676c4.160396,4.644049 5.151719,12.615498 2.974758,23.911167c-2.274118,11.763175 -6.653316,20.159195 -13.144703,25.189652c-6.491387,5.031252 -16.369859,7.543697 -29.631467,7.543697l-20.008132,0l12.282133,-63.610193l22.537387,0zm-80.144693,128.004332l32.893748,0l7.801829,-40.408235l28.174893,0c12.432214,0 22.659031,-1.311878 30.687561,-3.943585c8.029319,-2.627732 15.325613,-7.034848 21.89362,-13.222142c5.511912,-5.100424 9.97168,-10.725598 13.387202,-16.877115c3.411572,-6.146746 5.835771,-12.933529 7.268647,-20.354785c3.480293,-18.016461 0.85388,-32.049583 -7.87134,-42.10334s-22.606108,-15.080239 -41.634766,-15.080239l-63.253501,0l-29.347893,151.989441z"/>
  <path stroke="null" id="svg_3" fill="#000003" d="m232.201915,152.513164l28.385584,0l-6.786871,41.449704l25.288275,0c15.910465,0 26.886398,3.296533 32.927112,9.882259c6.040027,6.589804 7.849767,17.265613 5.434719,32.024164l-11.876681,72.550643l-28.836301,0l11.292672,-68.982525c1.28482,-7.847413 0.81349,-13.199997 -1.418111,-16.053676c-2.231601,-2.854494 -6.979938,-4.282557 -14.242261,-4.282557l-22.68703,0l-14.622897,89.317943l-28.386271,0l25.528062,-155.905955z"/>
  <path stroke="null" id="svg_4" fill="#000003" d="m385.399652,218.868361c12.156046,0 20.257516,2.261789 24.30825,6.786143c4.04843,4.524354 5.011939,12.290347 2.893602,23.294882c-2.212076,11.459992 -6.470265,19.639614 -12.786092,24.540416c-6.31429,4.901577 -15.92326,7.349267 -28.823068,7.349267l-19.461506,0l11.947055,-61.970708l21.921759,0zm-77.957436,124.705157l31.996348,0l7.588213,-39.366756l27.406233,0c12.093041,0 22.040853,-1.278066 29.851119,-3.841944c7.809497,-2.560005 14.906735,-6.853532 21.296323,-12.881356c5.362306,-4.968966 9.699635,-10.449158 13.021975,-16.442125c3.31773,-5.98832 5.676561,-12.600181 7.069577,-19.830162c3.385345,-17.552106 0.831353,-31.223539 -7.656596,-41.018172c-8.487181,-9.794633 -21.989374,-14.691562 -40.498896,-14.691562l-61.526297,0l-28.547999,148.072076z"/>
 </g>
</svg>